<svg width="702" height="100" viewBox="0 0 702 100" fill="none" xmlns="http://www.w3.org/2000/svg">
    <path d="M160.08 75.8817C174.451 75.8817 184.59 66.0071 184.59 52.077C184.59 38.1468 174.451 28.2722 160.08 28.2722C145.709 28.2722 135.57 38.1468 135.57 52.077C135.57 66.0071 145.709 75.8817 160.08 75.8817ZM160.08 66.6243C151.793 66.6243 146.15 60.7172 146.15 52.077C146.15 43.4367 151.793 37.5296 160.08 37.5296C168.368 37.5296 174.01 43.4367 174.01 52.077C174.01 60.7172 168.368 66.6243 160.08 66.6243Z" fill="white"/>
    <path d="M216.945 33.8267C209.98 33.8267 205.131 36.4716 201.604 41.7616C202.398 32.5042 205.307 27.5669 217.474 26.5089C226.202 25.7154 233.696 23.5994 234.402 12.3142L225.497 11.5208C224.88 15.4 223.557 16.7225 217.386 17.2515C197.548 18.9267 191.201 31.2699 191.201 48.1977C191.201 56.7497 193.14 63.1858 196.579 67.6823C200.811 73.1485 207.07 75.8817 214.564 75.8817C227.966 75.8817 237.487 67.0651 237.487 54.7219C237.487 42.4669 228.935 33.8267 216.945 33.8267ZM214.653 66.8006C207.159 66.8006 202.045 61.9515 202.045 54.8101C202.045 47.7568 207.159 42.9077 214.653 42.9077C222.059 42.9077 227.172 47.7568 227.172 54.8101C227.172 61.9515 222.059 66.8006 214.653 66.8006Z" fill="white"/>
    <path d="M255.978 93.074V68.0349C259.152 71.8261 264.883 75.8817 272.906 75.8817C286.043 75.8817 295.3 65.919 295.3 52.077C295.3 38.2349 286.043 28.2722 272.906 28.2722C264.53 28.2722 258.711 32.6805 255.537 36.5598L253.421 29.1539H245.839V93.074H255.978ZM270.437 66.8006C261.885 66.8006 255.978 60.7172 255.978 52.077C255.978 43.4367 261.885 37.3533 270.437 37.3533C278.901 37.3533 284.72 43.4367 284.72 52.077C284.72 60.7172 278.901 66.8006 270.437 66.8006Z" fill="white"/>
    <path d="M322.819 28.2722C313.915 28.2722 306.068 32.8568 303.776 40.7917L313.121 42.3787C314.532 39.5574 317.706 36.9125 322.29 36.9125C327.845 36.9125 331.107 40.8799 331.548 46.8752H321.673C308.184 46.8752 301.483 52.7823 301.483 61.2462C301.483 69.7982 308.096 75.8817 317.441 75.8817C324.935 75.8817 329.961 71.5616 332.165 67.7704L334.281 75H341.775V49.2556C341.775 35.9426 334.545 28.2722 322.819 28.2722ZM319.822 67.3296C314.885 67.3296 311.711 64.7728 311.711 60.8054C311.711 57.2787 314.267 54.8101 322.026 54.8101H331.636C331.636 62.3042 326.875 67.3296 319.822 67.3296Z" fill="white"/>
    <path d="M378.871 51.6361C383.544 50.4018 386.983 46.6107 386.983 41.4089C386.983 33.7385 379.665 28.2722 369.526 28.2722C360.445 28.2722 352.774 32.5042 349.953 41.2326L359.299 42.8196C361.15 39.2048 364.765 36.9125 369.173 36.9125C373.405 36.9125 376.844 39.0284 376.844 42.4669C376.844 45.5527 374.022 47.5805 368.556 47.5805H362.825V56.3971H368.556C375.433 56.3971 377.549 58.6894 377.549 61.5988C377.549 65.1255 374.375 67.2414 368.556 67.2414C363.266 67.2414 360.18 65.4781 358.153 61.4225L348.807 63.0095C351.011 70.6799 358.505 75.8817 368.644 75.8817C380.282 75.8817 387.688 69.8864 387.688 62.3923C387.688 56.6616 383.544 53.0468 378.871 51.6361Z" fill="white"/>
    <path d="M419.239 75.8817C433.61 75.8817 443.749 66.0071 443.749 52.077C443.749 38.1468 433.61 28.2722 419.239 28.2722C404.868 28.2722 394.729 38.1468 394.729 52.077C394.729 66.0071 404.868 75.8817 419.239 75.8817ZM419.239 66.6243C410.951 66.6243 405.309 60.7172 405.309 52.077C405.309 43.4367 410.951 37.5296 419.239 37.5296C427.526 37.5296 433.169 43.4367 433.169 52.077C433.169 60.7172 427.526 66.6243 419.239 66.6243Z" fill="white"/>
    <path d="M484.127 51.1953C488.094 49.3438 490.651 46.258 490.651 41.4971C490.651 34.2675 484.039 29.1539 474.517 29.1539H452.563V75H475.487C485.361 75 492.238 69.6219 492.238 62.3042C492.238 56.7497 488.623 52.6059 484.127 51.1953ZM474.517 37.5296C478.043 37.5296 480.512 39.6456 480.512 42.5551C480.512 45.4645 478.043 47.4923 474.517 47.4923H462.703V37.5296H474.517ZM462.703 66.6243V55.4272H475.487C479.454 55.4272 482.099 57.7196 482.099 61.0699C482.099 64.4201 479.454 66.6243 475.487 66.6243H462.703Z" fill="white"/>
    <path d="M520.159 28.2722C511.254 28.2722 503.408 32.8568 501.115 40.7917L510.461 42.3787C511.871 39.5574 515.045 36.9125 519.63 36.9125C525.184 36.9125 528.447 40.8799 528.887 46.8752H519.013C505.523 46.8752 498.823 52.7823 498.823 61.2462C498.823 69.7982 505.435 75.8817 514.781 75.8817C522.275 75.8817 527.3 71.5616 529.505 67.7704L531.621 75H539.115V49.2556C539.115 35.9426 531.885 28.2722 520.159 28.2722ZM517.161 67.3296C512.224 67.3296 509.05 64.7728 509.05 60.8054C509.05 57.2787 511.607 54.8101 519.365 54.8101H528.976C528.976 62.3042 524.215 67.3296 517.161 67.3296Z" fill="white"/>
    <path d="M580.796 47.2278H560.253V29.1539H550.114V75H560.253V56.4852H580.796V75H590.935V29.1539H580.796V47.2278Z" fill="white"/>
    <path d="M616.747 75L633.851 40.9681H635.262V75H644.96V29.1539H630.589L613.485 63.1858H612.074V29.1539H602.376V75H616.747Z" fill="white"/>
    <path d="M701.411 51.548C701.411 38.3231 691.536 28.2722 677.606 28.2722C663.676 28.2722 653.802 38.2349 653.802 52.077C653.802 65.919 663.676 75.8817 677.606 75.8817C687.128 75.8817 696.121 71.3852 699.56 62.6568L690.038 61.0699C687.833 64.332 683.602 66.6243 678.223 66.6243C670.465 66.6243 665.351 61.8633 664.381 54.8101H701.235C701.323 53.8403 701.411 52.7823 701.411 51.548ZM677.606 37.0888C683.954 37.0888 688.715 41.1444 690.39 46.8752H664.999C666.674 40.9681 671.435 37.0888 677.606 37.0888Z" fill="white"/>
    <path fill-rule="evenodd" clip-rule="evenodd" d="M7.02944 7.02944C0 14.0589 0 25.3726 0 48V52C0 74.6274 0 85.9411 7.02944 92.9706C14.0589 100 25.3726 100 48 100H52C74.6274 100 85.9411 100 92.9706 92.9706C100 85.9411 100 74.6274 100 52V48C100 25.3726 100 14.0589 92.9706 7.02944C85.9411 0 74.6274 0 52 0H48C25.3726 0 14.0589 0 7.02944 7.02944ZM16.8752 30.4169C17.4168 56.4169 30.4167 72.0418 53.2084 72.0418H54.5003V57.1668C62.8753 58.0001 69.2082 64.1252 71.7498 72.0418H83.5835C80.3335 60.2085 71.7914 53.6668 66.4581 51.1668C71.7914 48.0835 79.2915 40.5835 81.0831 30.4169H70.3328C67.9995 38.6669 61.0836 46.1668 54.5003 46.8751V30.4169H43.7499V59.2501C37.0833 57.5835 28.6668 49.5002 28.2918 30.4169H16.8752Z" fill="white"/>
</svg>
